<svg width="1284" height="346" viewBox="0 0 1284 346" fill="none" xmlns="http://www.w3.org/2000/svg">
<path d="M597.5 104C597.5 154.591 556.701 195.5 506.5 195.5C456.299 195.5 415.5 154.591 415.5 104C415.5 53.4091 456.299 12.5 506.5 12.5C556.701 12.5 597.5 53.4091 597.5 104Z" stroke="white" stroke-opacity="0.05" stroke-width="25"/>
<path d="M54 129.5C54 142.384 43.3503 153 30 153C16.6497 153 6 142.384 6 129.5C6 116.616 16.6497 106 30 106C43.3503 106 54 116.616 54 129.5Z" stroke="#54B435" stroke-opacity="0.5" stroke-width="12"/>
<circle cx="788.5" cy="110.5" r="15.5" stroke="#54B435" stroke-opacity="0.5" stroke-width="12"/>
<path d="M1342.5 234C1342.5 288.9 1297.78 333.5 1242.5 333.5C1187.22 333.5 1142.5 288.9 1142.5 234C1142.5 179.1 1187.22 134.5 1242.5 134.5C1297.78 134.5 1342.5 179.1 1342.5 234Z" stroke="white" stroke-opacity="0.05" stroke-width="25"/>
</svg>
