<svg width="166" height="267" viewBox="0 0 166 267" fill="none" xmlns="http://www.w3.org/2000/svg">
<path d="M47.3204 108.071C50.3231 111.744 53.7369 115.062 57.4951 117.958C53.4846 105.799 59.8014 81.7185 59.8184 85.3559C59.8947 102.738 66.3217 123.181 70.0864 124.944C70.0864 124.944 70.0864 124.944 70.1542 124.944C80.4901 128.675 90.7835 127.929 99.8306 125.199C99.8306 125.199 99.8306 125.199 99.8306 125.139C94.2938 111.166 100.068 86.543 100.288 88.1709C102.773 105.604 113.168 117.763 115.33 118.212C125.013 112.319 130.931 105.621 129.956 104.595C122.902 97.1332 119.035 81.0401 116.051 64.2687C113.083 47.7347 113.075 32.6252 107.199 17.1511C101.806 2.99124 86.1286 -2.9186 75.5723 1.38872C47.8376 12.7166 43.0724 102.924 47.3204 108.071Z" fill="#263238"/>
<path d="M77.4265 0.767578C75.1225 1.36895 72.9761 2.46238 71.1351 3.97263C69.2609 5.43984 67.524 7.07453 65.946 8.85651C62.8789 12.4914 60.2072 16.4422 57.9758 20.6423C53.3717 28.9771 50.3447 38.092 48.1317 47.3001C46.057 56.5548 44.7748 65.9694 44.2992 75.4418C44.1466 77.8075 44.1296 80.1731 44.0448 82.5387L44.0024 89.6356L44.2399 96.7156L44.6808 103.787V96.7071L44.8079 89.6356L45.0708 82.5726C45.2319 80.224 45.3167 77.8668 45.5371 75.5266C46.2018 66.1433 47.5908 56.8254 49.6918 47.6563C51.6888 38.4792 54.8219 29.5869 59.0187 21.1849C61.1112 16.984 63.6254 13.0067 66.5226 9.31438C67.9896 7.47382 69.6215 5.77096 71.398 4.227C72.2968 3.47514 73.249 2.78936 74.2469 2.17508C75.2309 1.5505 76.3026 1.07613 77.4265 0.767578Z" fill="#263238"/>
<path d="M131.485 102.335C129.652 98.6819 128.005 94.9379 126.551 91.1178C125.041 87.3192 123.676 83.4867 122.498 79.5694C121.319 75.6521 120.259 71.7348 119.445 67.7582C118.631 63.7816 117.953 59.7201 117.207 55.7011C115.621 47.6631 114.044 39.5911 111.992 31.6632C110.941 27.6951 109.822 23.7439 108.44 19.869C107.743 17.9323 106.939 16.0357 106.032 14.1881C105.198 12.3003 103.983 10.6057 102.462 9.21094C103.844 10.7101 104.926 12.46 105.65 14.3662C106.439 16.2444 107.126 18.1633 107.71 20.1149C108.931 24.0067 109.915 27.9749 110.814 31.9854C112.611 39.9557 114.205 47.9768 115.655 56.0233C116.452 60.0423 117.173 64.0529 118.046 68.0889C118.915 72.1062 120.017 76.0697 121.345 79.9594C123.934 87.7517 127.333 95.2512 131.485 102.335Z" fill="#263238"/>
<path d="M150.156 266.301H83.8165C83.2512 264.09 82.686 261.875 82.1207 259.653C81.7533 258.195 81.383 256.739 81.01 255.286C81.01 255.193 80.9676 255.108 80.9421 255.015L79.4922 249.317C79.4414 249.131 79.3905 248.944 79.3481 248.758C78.9835 247.308 78.6104 245.858 78.2543 244.425C77.3273 240.824 76.4172 237.26 75.5241 233.733C75.1849 232.393 74.8458 231.045 74.4981 229.722C74.489 229.659 74.4748 229.597 74.4557 229.536C74.2437 228.688 74.0233 227.84 73.8113 226.992C72.4292 221.582 71.098 216.334 69.8262 211.314C69.6736 210.721 69.521 210.153 69.3683 209.576C68.2491 205.159 67.1808 200.953 66.1718 197.002L65.7478 195.306C65.5019 194.331 65.2645 193.381 65.0186 192.449C64.7982 191.601 64.5862 190.77 64.3827 189.956C63.7722 187.556 63.1872 185.301 62.6869 183.173C62.6021 182.825 62.5089 182.494 62.4325 182.164C61.6694 179.205 60.9996 176.551 60.4146 174.261C60.3043 173.854 60.2111 173.464 60.1093 173.083C59.8973 172.235 59.6938 171.455 59.5158 170.734C59.4225 170.37 59.3377 170.022 59.2444 169.691L57.998 164.799H121.2C121.2 164.799 136.284 216.792 150.156 266.301Z" fill="#37474F"/>
<path d="M94.3164 266.292H92.451C91.3205 261.844 90.2126 257.395 89.1273 252.946L87.8554 247.859C86.9058 244.021 85.9505 240.172 84.9895 236.311C84.9895 236.141 84.9132 235.963 84.8708 235.794C80.3261 217.386 75.8662 198.935 71.8302 180.409C71.7793 180.188 71.7284 179.968 71.686 179.748C71.686 179.723 71.6959 179.699 71.7134 179.682C71.7308 179.664 71.7546 179.654 71.7793 179.654C71.804 179.654 71.8278 179.664 71.8453 179.682C71.8627 179.699 71.8726 179.723 71.8726 179.748L71.9319 179.968C77.0193 198.121 81.776 216.428 86.3462 234.725C86.4394 235.039 86.5157 235.361 86.5921 235.675C86.9736 237.184 87.3467 238.676 87.7282 240.177C88.2539 242.305 88.7966 244.417 89.3308 246.562C91.0152 253.125 92.6771 259.701 94.3164 266.292Z" fill="#263238"/>
<path d="M119.148 164.836L110.169 209.774L109.762 211.784L109.126 214.98L108.109 220.068L107.168 224.807V225.019L106.99 225.867L98.943 266.193H83.8165C83.2512 263.983 82.686 261.767 82.1207 259.546C81.7533 258.087 81.383 256.632 81.01 255.179C81.01 255.086 80.9676 255.001 80.9421 254.908C80.4503 253.008 79.9755 251.109 79.4922 249.21C79.4414 249.023 79.3905 248.837 79.3481 248.65C78.9835 247.2 78.6104 245.75 78.2543 244.317C77.3273 240.717 76.4172 237.153 75.5241 233.625C75.1849 232.286 74.8458 230.938 74.4981 229.615C74.489 229.552 74.4748 229.489 74.4557 229.428C74.2437 228.58 74.0233 227.733 73.8113 226.885C72.4292 221.475 71.098 216.227 69.8262 211.207L69.3683 209.469C68.2491 205.051 67.1808 200.846 66.1718 196.895C66.0276 196.326 65.892 195.767 65.7478 195.199C65.5019 194.224 65.2645 193.274 65.0186 192.341C64.7982 191.493 64.5862 190.662 64.3827 189.848C63.7722 187.449 63.1872 185.194 62.6869 183.065C62.6021 182.718 62.5089 182.387 62.4325 182.056C61.6694 179.097 60.9996 176.443 60.4146 174.154C60.3043 173.747 60.2111 173.357 60.1093 172.975C59.8973 172.127 59.6938 171.347 59.5158 170.627C59.4225 170.262 59.3377 169.914 59.2444 169.584L57.998 164.691L119.148 164.836Z" fill="#263238"/>
<path d="M119.17 164.809C119.17 165.165 118.907 168.912 118.322 174.636C117.115 186.675 115.133 198.624 112.387 210.408C111.692 213.283 110.929 216.123 110.098 218.887C109.538 220.804 108.928 222.703 108.275 224.501L108.224 224.662L107.122 225.077C101.16 227.538 95.3973 230.455 89.884 233.802C89.884 233.802 89.884 233.929 89.884 234.158C89.8416 235.413 89.6635 239.915 89.4091 246.512C89.3243 248.479 89.248 250.633 89.1548 252.939C89.0022 256.966 88.8241 261.477 88.646 266.285H25.1216C25.9695 255.61 26.7665 244.774 27.5805 234.268C27.5805 234.268 21.6452 217.641 22.2896 209.238C23.8922 188.889 33.0155 164.817 33.0155 164.817L119.17 164.809Z" fill="#37474F"/>
<path d="M97.4866 209.477L97.563 204.39C97.6138 201.286 97.8258 198.183 97.9445 195.063C98.2158 188.034 98.5296 180.979 99.1231 173.967C99.1231 173.797 99.4199 173.797 99.4283 173.967C99.5301 176.757 99.5894 179.538 99.581 182.327C99.5725 185.117 99.6657 187.906 99.6573 190.688C99.6573 196.216 99.6573 201.71 99.4283 207.272C99.352 209.401 98.5804 213.309 101.65 213.547C104.092 213.733 105.508 211.164 105.94 209.121C106.34 206.571 106.533 203.994 106.517 201.413C106.624 198.587 106.684 195.781 106.695 192.994C106.695 186.88 106.839 180.784 107 174.679C107 174.501 107.28 174.518 107.305 174.679C108.007 180.837 108.401 187.026 108.484 193.223C108.484 196.19 108.484 199.158 108.357 202.134C108.263 204.907 108.314 207.866 107.458 210.537C106.788 212.631 105.27 214.641 103.049 215.192C103.004 215.188 102.958 215.188 102.913 215.192C102.943 215.208 102.969 215.231 102.988 215.259C103.007 215.287 103.019 215.319 103.023 215.353C103.117 216.328 103.278 217.303 103.303 218.287C103.329 219.27 103.303 220.245 103.218 221.212C103.176 222.206 103.057 223.195 102.862 224.171C102.776 224.639 102.66 225.1 102.515 225.553C102.362 226.028 102.108 226.401 101.913 226.867C101.896 226.903 101.868 226.932 101.834 226.951C101.799 226.969 101.759 226.975 101.72 226.968C101.682 226.961 101.646 226.942 101.62 226.913C101.593 226.884 101.577 226.847 101.574 226.808C101.574 226.647 101.574 226.486 101.523 226.333C101.527 226.305 101.527 226.276 101.523 226.248C101.486 225.967 101.467 225.684 101.463 225.4C101.463 224.926 101.514 224.451 101.548 223.976C101.624 223.026 101.752 222.068 101.879 221.127C102.006 220.186 102.074 219.228 102.184 218.278C102.294 217.328 102.481 216.336 102.566 215.353C102.575 215.316 102.596 215.284 102.625 215.26C101.75 215.423 100.845 215.314 100.034 214.947C99.223 214.58 98.5439 213.973 98.0887 213.208C97.573 212.036 97.3658 210.751 97.4866 209.477Z" fill="#263238"/>
<path d="M84.4747 236.107C86.4687 234.581 88.5683 233.199 90.7576 231.969C93.0613 230.575 95.4547 229.334 97.9223 228.256C102.755 226.161 107.741 224.728 112.727 223.075C112.871 223.024 112.973 223.279 112.828 223.329C107.995 225.254 103.366 227.806 98.7024 230.113C96.4046 231.24 94.0814 232.309 91.7412 233.343C89.401 234.378 87.0608 235.582 84.6612 236.463C84.4747 236.506 84.3306 236.226 84.4747 236.107Z" fill="#263238"/>
<path d="M46.7646 194.007C50.1562 194.007 60.2037 194.134 65.4183 189.25C67.6228 187.181 68.8099 184.163 69.768 181.407C70.8609 178.296 71.7447 175.115 72.4135 171.885C72.4135 171.724 72.6763 171.784 72.6848 171.928C72.7608 175.589 72.2892 179.242 71.2858 182.764C70.4379 185.74 69.361 189.072 66.953 191.167C64.545 193.261 60.9668 194.143 57.7194 194.558C54.0738 194.982 50.3885 194.931 46.7561 194.406C46.7033 194.404 46.653 194.382 46.6164 194.344C46.5799 194.306 46.56 194.255 46.5611 194.202C46.5622 194.149 46.5843 194.099 46.6224 194.062C46.6606 194.026 46.7117 194.006 46.7646 194.007Z" fill="#263238"/>
<path d="M128.169 193.529C126.643 193.63 122.124 194.105 119.419 189.425C118.275 187.432 117.52 184.465 116.876 181.751C116.138 178.682 115.527 175.545 114.968 172.34C114.968 172.187 114.841 172.246 114.849 172.39C115.086 175.999 115.565 179.588 116.282 183.133C116.876 186.076 117.63 189.357 118.868 191.366C119.331 192.171 119.968 192.861 120.733 193.388C121.497 193.915 122.369 194.264 123.286 194.41C124.943 194.715 126.654 194.535 128.212 193.893C128.305 193.851 128.28 193.52 128.169 193.529Z" fill="#263238"/>
<path d="M42.1882 170.177C42.1034 170.49 33.8364 201.651 34.2179 209.18C34.5995 216.709 39.017 231.946 39.034 232.073C39.0509 232.2 38.2454 245.546 37.0499 266.277H35.4389L37.4145 232.26C37.228 231.132 32.9715 216.658 32.5984 209.282C32.1914 201.464 40.2295 171.025 40.6111 169.736C40.7051 169.577 40.8482 169.454 41.0188 169.384C41.1894 169.314 41.3781 169.301 41.5564 169.348C41.7347 169.395 41.8928 169.499 42.0068 169.644C42.1208 169.789 42.1845 169.967 42.1882 170.151V170.177Z" fill="#263238"/>
<path d="M98.4959 74.5492C131.081 103.267 161.35 134.75 163.869 151.004C167.362 173.473 153.592 179.875 147.394 180.002C130.504 180.358 99.064 112.264 88.0922 86.2502C77.4511 60.9998 91.3396 68.2832 98.4959 74.5492Z" fill="#009247"/>
<path d="M120.816 164.813L116.271 136.256C116.271 136.256 127.582 124.555 121.732 112.294C118.781 106.079 98.6945 75.8347 87.9687 68.2036C77.9041 61.0643 65.9742 66.9911 61.5058 74.7154C50.2288 94.2086 39.5198 116.627 32.9995 164.838L120.816 164.813Z" fill="#009247"/>
<path d="M102.887 132.552C98.309 133.047 93.7743 133.883 89.3207 135.053C87.1161 135.664 84.9625 136.376 82.8088 137.131C81.7405 137.504 80.6551 137.843 79.5698 138.182C78.4446 138.564 77.2774 138.809 76.0935 138.911C76.0765 138.917 76.0617 138.928 76.0513 138.942C76.0408 138.957 76.0352 138.974 76.0352 138.992C76.0352 139.01 76.0408 139.027 76.0513 139.042C76.0617 139.056 76.0765 139.067 76.0935 139.072C77.2256 139.108 78.3588 139.065 79.4851 138.945C80.5645 138.795 81.6325 138.571 82.6816 138.275C84.9201 137.673 87.1246 136.978 89.3631 136.359C93.8569 135.104 98.3592 133.815 102.929 132.925C103.167 132.883 103.099 132.527 102.887 132.552Z" fill="#263238"/>
<path d="M114.265 136.392C110.493 136.073 106.705 135.965 102.92 136.07C101.021 136.129 99.1473 136.299 97.2649 136.519C96.3662 136.63 95.4674 136.748 94.5686 136.884C93.6698 137.02 92.6185 137.308 91.6349 137.435C91.5332 137.435 91.5332 137.613 91.6349 137.596C92.5676 137.503 93.5172 137.596 94.4584 137.52L97.2819 137.393C99.1727 137.308 101.064 137.24 102.946 137.138C106.727 136.935 110.484 136.774 114.265 136.706C114.301 136.698 114.332 136.678 114.355 136.649C114.377 136.621 114.39 136.585 114.39 136.549C114.39 136.513 114.377 136.477 114.355 136.449C114.332 136.42 114.301 136.4 114.265 136.392Z" fill="#263238"/>
<path d="M60.4082 71.757C30.0365 95.5829 0.20752 136.765 0.00402457 159.794C-0.216429 182.526 7.70293 180.322 9.94986 180.144C23.6858 179.245 56.033 115.966 65.911 90.1733C75.6703 64.6008 67.8697 65.8641 60.4082 71.757Z" fill="#009247"/>
<path d="M28.1714 162.411C29.7654 159.545 31.4019 156.713 32.945 153.83L37.6763 145.224C40.7966 139.475 43.9677 133.752 47.0032 127.952C50.0386 122.153 53.1674 116.421 56.152 110.604C57.6612 107.705 59.1309 104.785 60.561 101.846C62.0449 98.9288 63.393 95.9527 64.8005 92.9766C62.6359 99.1682 60.1279 105.234 57.2882 111.147C54.5071 117.082 51.4801 122.907 48.4446 128.715C45.4091 134.524 42.1278 140.204 38.7786 145.834C35.4294 151.464 31.953 157.052 28.1714 162.411Z" fill="#263238"/>
<path d="M61.5874 100.598C62.1482 99.5675 62.7741 98.5735 63.4613 97.6222C63.8004 97.1559 64.1226 96.6811 64.4872 96.2317C64.8518 95.7823 65.191 95.299 65.598 94.8496C65.3259 96.0169 64.8181 97.1162 64.1057 98.0801C63.4281 99.0671 62.5744 99.9208 61.5874 100.598Z" fill="#263238"/>
<path d="M154.377 117.735C152.783 107.06 149.595 92.1793 145.745 89.1014C141.693 85.8709 127.015 75.0687 122.793 73.6612C118.57 72.2537 99.7471 65.3264 96.3216 67.3529C93.5829 68.9808 96.9321 76.1964 105.894 79.5711C113.763 82.5387 117.833 85.3368 120.088 86.2864C122.344 87.2361 127.965 94.5873 126.498 97.8856C125.65 99.8273 120.046 102.125 116.535 100.607C113.025 99.0897 112.084 92.1284 108.056 88.9403C104.029 85.7522 96.9914 86.2016 96.6014 88.0924C96.2114 89.9832 98.5516 90.8566 102.223 97.2836C104.589 101.413 104.851 111.384 110.185 118.481C112.864 122.042 117.578 131.556 117.578 131.556L154.377 117.735Z" fill="#F3A398"/>
<path d="M104.291 86.0326C103.003 85.8546 101.79 85.3201 100.789 84.4894C100.472 84.2023 100.229 83.8424 100.081 83.4407C99.9337 83.039 99.8856 82.6075 99.9414 82.1832C99.9479 81.8703 100.065 81.5699 100.272 81.3353C100.34 81.2844 100.272 81.1996 100.204 81.2674C100.107 81.419 99.9996 81.5635 99.8821 81.6999C99.8036 81.8257 99.7383 81.9592 99.6871 82.0984C99.5909 82.3705 99.5449 82.6577 99.5514 82.9463C99.5785 83.6012 99.83 84.2269 100.264 84.7184C100.78 85.2483 101.413 85.6506 102.112 85.8935C102.811 86.1363 103.557 86.213 104.291 86.1174C104.35 86.1344 104.35 86.0411 104.291 86.0326Z" fill="#263238"/>
<path d="M145.741 89.1063C142.282 83.8069 133.489 74.2851 124.841 71.0715C118.999 68.8924 99.0648 78.8637 99.6922 82.6877C100.32 86.5117 103.737 86.4863 108.799 85.8249C110.639 85.5875 120.364 81.9839 122.051 84.0104C124.476 86.9272 127.622 96.9578 127.622 96.9578L145.741 89.1063Z" fill="#F3A398"/>
<path d="M100.182 81.1704C102.615 77.0412 108.025 74.7943 113.426 73.0137C113.439 73.0185 113.45 73.0272 113.458 73.0385C113.466 73.0499 113.47 73.0634 113.47 73.0773C113.47 73.0911 113.466 73.1046 113.458 73.116C113.45 73.1274 113.439 73.136 113.426 73.1409C112.053 73.5987 103.251 77.7449 100.199 81.2298C100.207 81.2722 100.157 81.2043 100.182 81.1704Z" fill="#263238"/>
<path d="M145.735 89.0938C142.276 83.7945 133.483 74.2726 124.835 71.0591C118.993 68.88 103.273 81.5306 103.9 85.3546C104.528 89.1786 109.445 89.433 114.855 87.4828C116.602 86.8554 122.486 82.6498 124.131 84.6763C126.556 87.593 132.466 94.851 132.466 94.851L145.735 89.0938Z" fill="#F3A398"/>
<path d="M129.087 90.3412C128.527 89.4933 128.341 89.2135 127.773 88.391C127.204 87.5685 126.619 86.7461 126 85.9745C125.507 85.2456 124.89 84.6085 124.178 84.0922C123.444 83.6883 122.599 83.5335 121.769 83.6513C119.887 83.8463 118.2 85.0588 116.614 85.9915C114.842 87.0344 111.154 88.7302 108.322 88.4588C107.541 88.4272 106.775 88.2307 106.075 87.8823C105.546 87.6447 105.083 87.2807 104.727 86.8224C103.472 84.7535 104.981 82.354 106.533 80.6497C109.433 77.4786 113.316 75.1638 117.14 73.2476C118.073 72.7812 119.014 72.3318 119.963 71.8909C121.008 71.3135 122.165 70.9666 123.355 70.8735C125.322 70.8311 128.57 72.7982 129.579 73.4171C129.655 73.4595 129.714 73.3324 129.638 73.29C128.417 72.5438 125.398 70.1188 122.219 70.3139C121.06 70.5004 119.943 70.8908 118.921 71.467C117.818 71.9503 116.733 72.476 115.656 73.0271C113.56 74.0877 111.547 75.3065 109.636 76.6731C107.728 77.9425 106.068 79.5486 104.735 81.4128C104.179 82.2438 103.858 83.2102 103.807 84.2092C103.756 85.2081 103.977 86.2021 104.447 87.0852C105.295 88.5182 107.186 88.8489 108.042 88.9421C108.872 89.0523 109.713 89.0523 110.543 88.9421C112.392 88.5038 114.208 87.9371 115.978 87.2464C117.674 86.5426 119.234 85.364 120.998 84.8129C121.831 84.5259 122.744 84.5745 123.542 84.9485C124.269 85.4283 124.921 86.0142 125.475 86.6867C126.676 87.8395 127.766 89.1028 128.731 90.4599C129.027 90.8329 129.29 90.7142 129.087 90.3412Z" fill="#263238"/>
<path d="M148.319 93.7229C147.039 91.1792 144.826 80.7585 142.774 77.5704C140.722 74.3823 131.386 63.3851 127.088 63.9108C121.686 64.5722 127.427 74.2636 130.301 78.2487C133.175 82.2339 132.768 89.0594 132.768 89.0594L148.319 93.7229Z" fill="#F3A398"/>
<path d="M126.286 71.6837C127.303 72.9386 128.21 74.3376 129.101 75.6943C130.014 76.9534 130.836 78.2767 131.56 79.6539C132.166 81.0652 132.538 82.5658 132.662 84.0969C132.738 84.8515 132.772 85.5977 132.789 86.3523C132.806 87.107 132.73 88.0481 132.789 88.8367C132.789 88.9215 132.653 88.9384 132.653 88.8367C132.534 87.3326 132.322 85.8375 132.017 84.3598C131.736 82.8241 131.266 81.329 130.618 79.9083C129.321 77.0848 127.447 74.5835 126.125 71.777C126.048 71.6244 126.209 71.548 126.286 71.6837Z" fill="#263238"/>
<path d="M132.691 90.2012C133.065 92.7957 132.318 95.4242 131.386 97.8322C130.908 99.0483 130.342 100.227 129.69 101.359C129.027 102.478 128.29 103.552 127.485 104.573C125.935 106.519 124.636 108.653 123.619 110.924C122.658 113.258 121.986 115.701 121.618 118.199C121.401 115.605 121.689 112.993 122.466 110.508C123.31 108.023 124.569 105.698 126.188 103.632C127.729 101.665 129.065 99.5457 130.173 97.3065C131.284 95.0427 132.403 92.7533 132.691 90.2012Z" fill="#263238"/>
<path d="M145.838 179.233C135.29 177.809 128.396 160.173 116.356 129.207C114.237 123.764 141.793 90.2973 145.541 95.2914C150.264 101.583 162.982 136.609 164.313 146.165C166.95 164.955 158.149 180.895 145.838 179.233Z" fill="#F3A398"/>
<path d="M122.714 146.453L156.706 113.428C156.706 113.428 166.364 141.849 165.456 153.762C164.549 165.675 160.369 179.25 146.056 179.996C135.322 180.556 122.714 146.453 122.714 146.453Z" fill="#009247"/>
<path d="M133.711 169.314C132.482 167.576 131.388 165.753 130.32 163.922C129.251 162.09 128.268 160.216 127.309 158.326C126.351 156.435 125.47 154.493 124.689 152.518C123.854 150.559 123.193 148.53 122.714 146.455C123.613 148.38 124.562 150.262 125.52 152.144L128.378 157.791C129.302 159.691 130.243 161.582 131.125 163.498C132.007 165.414 132.914 167.339 133.711 169.314Z" fill="#263238"/>
<path d="M130.027 152.228C131.672 150.414 133.486 148.735 135.233 147.03C136.979 145.326 138.76 143.639 140.558 141.943C144.136 138.602 147.745 135.29 151.385 132.006C152.386 131.107 153.389 130.217 154.395 129.335C155.481 128.394 156.685 127.588 157.787 126.639C157.805 126.629 157.826 126.627 157.846 126.631C157.867 126.635 157.885 126.645 157.898 126.661C157.912 126.676 157.92 126.696 157.921 126.716C157.923 126.737 157.917 126.757 157.906 126.774C157.058 127.622 156.286 128.563 155.438 129.42C154.59 130.276 153.658 131.175 152.75 132.04C150.981 133.735 149.2 135.417 147.409 137.085C143.822 140.425 140.227 143.758 136.539 146.988C134.453 148.811 132.409 150.71 130.222 152.406C130.198 152.432 130.165 152.447 130.13 152.449C130.095 152.451 130.061 152.438 130.035 152.415C130.009 152.391 129.994 152.358 129.992 152.323C129.991 152.288 130.003 152.254 130.027 152.228Z" fill="#263238"/>
<path d="M69.3821 69.1362C69.628 70.832 76.7927 82.7873 86.2891 82.2108C91.775 81.8547 88.0443 70.832 88.0443 70.832L92.8179 55.7734L74.6136 41.8594C74.6136 41.8594 69.2888 68.3985 69.3821 69.1362Z" fill="#F3A398"/>
<path d="M72.6626 51.798C73.8823 55.7463 75.9013 59.4014 78.594 62.5361C81.2867 65.6708 84.5956 68.218 88.3148 70.0193L92.8256 55.8085L74.6128 41.8945C74.6128 41.8945 73.7309 46.3629 72.6626 51.798Z" fill="#263238"/>
<path d="M114.277 34.6626C114.819 60.5234 99.3875 63.7709 93.8084 63.8811C88.721 63.9828 71.4917 63.6776 68.2782 38.0033C65.0647 12.329 76.9268 3.90089 88.4921 3.06148C100.057 2.22206 113.742 8.79326 114.277 34.6626Z" fill="#F3A398"/>
<path d="M108.23 32.586C107.657 32.4511 107.091 32.2869 106.534 32.0943C105.89 32.009 105.293 31.7105 104.838 31.2464C104.726 31.0769 104.674 30.8749 104.689 30.6723C104.704 30.4696 104.787 30.2779 104.923 30.1272C105.237 29.8697 105.613 29.7002 106.014 29.6361C106.415 29.5721 106.826 29.6157 107.204 29.7626C108.019 29.9455 108.737 30.4225 109.222 31.1022C109.32 31.2624 109.369 31.4473 109.366 31.6349C109.362 31.8225 109.304 32.005 109.2 32.161C109.096 32.317 108.949 32.4399 108.777 32.5152C108.605 32.5905 108.415 32.6151 108.23 32.586Z" fill="#263238"/>
<path d="M90.484 31.8243C91.0789 31.7763 91.6706 31.6942 92.2561 31.5785C92.8929 31.586 93.5138 31.38 94.0197 30.9934C94.1561 30.8427 94.2384 30.6509 94.2537 30.4483C94.2691 30.2457 94.2166 30.0437 94.1045 29.8742C93.8334 29.5709 93.4856 29.3463 93.0977 29.224C92.7098 29.1016 92.296 29.0861 91.9 29.1789C91.0669 29.2302 90.2846 29.5971 89.7124 30.2049C89.5899 30.3494 89.5117 30.5262 89.4872 30.7141C89.4628 30.902 89.4931 31.093 89.5746 31.2641C89.6561 31.4351 89.7853 31.579 89.9466 31.6784C90.108 31.7778 90.2946 31.8285 90.484 31.8243Z" fill="#263238"/>
<path d="M93.7069 38.6134C93.7069 38.5455 93.5712 38.6897 93.5628 38.766C93.5628 40.5211 93.1982 42.5391 91.5787 43.0055C91.5278 43.0055 91.5278 43.1072 91.5787 43.1072C93.5458 42.9461 93.9613 40.3092 93.7069 38.6134Z" fill="#263238"/>
<path d="M92.2263 36.677C89.4113 36.3124 88.8941 41.9848 91.5056 42.3155C94.1171 42.6462 94.592 36.9738 92.2263 36.677Z" fill="#263238"/>
<path d="M91.0846 36.9211C90.5589 37.2009 90.0247 37.7182 89.3888 37.769C88.7528 37.8199 88.2187 37.1331 87.8202 36.5226C87.7778 36.4633 87.7269 36.5226 87.7184 36.582C87.6082 37.6673 87.9219 38.812 89.075 39.0833C90.2282 39.3546 90.9658 38.4304 91.3389 37.3875C91.4407 37.0822 91.2965 36.7685 91.0846 36.9211Z" fill="#263238"/>
<path d="M104.338 38.7735C104.338 38.7057 104.465 38.8753 104.457 38.9431C104.228 40.6898 104.262 42.7332 105.797 43.4709C105.839 43.4709 105.797 43.5811 105.797 43.5641C103.855 43.1063 103.838 40.393 104.338 38.7735Z" fill="#263238"/>
<path d="M106.072 37.0765C108.912 37.1443 108.615 42.8168 105.944 42.7659C103.273 42.715 103.689 37.0256 106.072 37.0765Z" fill="#263238"/>
<path d="M107.247 37.5448C107.68 37.867 108.095 38.4435 108.621 38.5114C109.147 38.5792 109.74 37.9941 110.173 37.4345C110.215 37.3752 110.257 37.4345 110.257 37.5024C110.257 38.5877 109.791 39.6984 108.74 39.8426C107.688 39.9867 107.129 38.9947 106.934 37.9094C106.9 37.7059 107.044 37.4091 107.247 37.5448Z" fill="#263238"/>
<path d="M93.6701 52.1344C94.0347 52.6008 94.3739 53.2198 95.0013 53.3554C95.6511 53.4321 96.3097 53.3714 96.9345 53.1774C96.9939 53.1774 97.0447 53.2282 97.0024 53.2706C96.7059 53.5809 96.3312 53.8053 95.9178 53.9202C95.5044 54.0351 95.0677 54.0363 94.6537 53.9235C94.3068 53.7837 94.0094 53.5436 93.7995 53.2341C93.5895 52.9245 93.4766 52.5594 93.4751 52.1853C93.4751 52.0836 93.6192 52.0666 93.6701 52.1344Z" fill="#263238"/>
<path d="M101.523 46.3488C101.523 46.3488 101.684 48.9942 101.583 50.2322C101.583 50.3509 101.269 50.3848 100.854 50.3763H100.803C99.725 50.4832 98.6386 50.2932 97.6611 49.8269C96.6837 49.3606 95.8524 48.6357 95.2574 47.7308C95.1811 47.6037 95.3507 47.485 95.4525 47.5698C96.9479 48.7721 98.7918 49.4591 100.709 49.5284C100.82 49.1977 100.285 45.0006 100.489 45.0006C101.442 45.157 102.369 45.4423 103.245 45.8485C103.084 40.3117 102.024 34.8259 101.947 29.34C101.939 29.2973 101.949 29.2531 101.974 29.2174C101.998 29.1816 102.036 29.1571 102.079 29.1492C102.121 29.1413 102.166 29.1507 102.201 29.1754C102.237 29.2 102.262 29.2379 102.27 29.2806C103.779 34.9276 104.109 41.2953 104.432 47.0017C104.508 47.7224 102.007 46.5947 101.523 46.3488Z" fill="#263238"/>
<path d="M68.8888 37.4264C75.2565 38.2743 80.3863 19.1288 80.9883 16.7717C80.6915 18.2809 79.1144 26.2512 79.6656 26.6751C80.3446 26.791 81.0384 26.791 81.7175 26.6751C81.8838 25.7174 82.1219 24.7736 82.4297 23.8516C82.5569 23.4192 82.4297 24.8436 82.4297 26.6157C82.8028 26.6157 83.2098 26.5225 83.6507 26.4886C83.9287 24.4295 84.479 22.4165 85.2871 20.5024C85.6009 19.7817 85.2278 23.2157 85.4482 26.3105C90.0099 25.8696 96.5811 25.3948 102.508 26.1918C104.102 26.4038 105.459 26.6497 106.654 26.9125C107.061 24.5554 107.214 21.9862 107.299 22.5628C107.529 24.0689 107.611 25.5939 107.544 27.116C108.189 27.2686 108.782 27.4128 109.317 27.5569C110.046 24.2501 109.359 18.6455 109.757 19.5528C110.918 22.3357 111.539 25.3137 111.589 28.3285C113.793 29.1764 114.345 29.7021 114.514 29.1255C114.802 28.0741 115.082 18.5099 108.96 10.4209C102.313 1.63672 86.8473 -2.908 76.0111 7.02935C76.0111 7.02935 67.8713 10.5736 65.4124 18.052C62.9535 25.5304 65.2005 36.9262 68.8888 37.4264Z" fill="#263238"/>
<path d="M72.6779 38.145C72.6779 38.145 67.5905 29.7169 63.7835 31.489C59.9764 33.2611 63.4612 45.2164 67.6499 47.0988C68.1706 47.3765 68.7421 47.546 69.3301 47.597C69.918 47.6481 70.5103 47.5797 71.0711 47.3959C71.6319 47.2122 72.1498 46.9168 72.5935 46.5277C73.0372 46.1386 73.3976 45.6637 73.653 45.1316L72.6779 38.145Z" fill="#F3A398"/>
<path d="M64.8523 34.8887C64.8412 34.8931 64.8318 34.9007 64.8251 34.9105C64.8185 34.9203 64.8149 34.9319 64.8149 34.9438C64.8149 34.9557 64.8185 34.9672 64.8251 34.9771C64.8318 34.9869 64.8412 34.9945 64.8523 34.9989C67.786 36.4234 69.185 39.3147 70.1092 42.2823C69.2613 41.1122 68.1082 40.417 66.5481 41.3836C66.4633 41.4344 66.5481 41.5616 66.6159 41.5531C67.1553 41.4191 67.723 41.4556 68.2408 41.6575C68.7586 41.8595 69.201 42.217 69.5072 42.6808C70.0134 43.4629 70.4368 44.2955 70.7706 45.1652C70.8893 45.445 71.3896 45.3348 71.3048 45.021C71.3008 44.9958 71.3008 44.97 71.3048 44.9447C71.5761 41.1546 68.9476 35.55 64.8523 34.8887Z" fill="#263238"/>
<path d="M95.094 81.2931L80.7476 125.655C80.1795 126.944 80.7476 128.063 82.0788 128.148L105.354 129.674C106.068 129.667 106.765 129.458 107.366 129.071C107.966 128.683 108.444 128.134 108.745 127.487L123.066 83.1246C123.634 81.8273 123.066 80.7081 121.743 80.5809L98.4686 79.0547C97.7515 79.0685 97.0532 79.2864 96.4556 79.6828C95.8579 80.0793 95.3856 80.6379 95.094 81.2931Z" fill="#37474F"/>
<path d="M97.8625 81.4395L83.5415 125.801C82.9734 127.099 83.5415 128.218 84.8727 128.303L108.147 129.829C108.862 129.822 109.559 129.613 110.16 129.225C110.76 128.838 111.238 128.289 111.539 127.641L125.86 83.271C126.428 81.9822 125.86 80.863 124.537 80.7782L101.263 79.252C100.546 79.2554 99.8462 79.4631 99.244 79.8506C98.6417 80.2381 98.1625 80.7893 97.8625 81.4395Z" fill="#455A64"/>
<path d="M104.117 83.9182C104.084 84.3093 103.935 84.6817 103.69 84.9883C103.445 85.295 103.115 85.522 102.741 85.6408C102.367 85.7596 101.966 85.7647 101.589 85.6555C101.212 85.5464 100.875 85.3278 100.623 85.0275C100.37 84.7273 100.212 84.3588 100.168 83.9686C100.125 83.5785 100.198 83.1843 100.379 82.8359C100.56 82.4875 100.84 82.2005 101.184 82.0113C101.528 81.8221 101.92 81.7392 102.311 81.773C102.835 81.8183 103.319 82.0697 103.658 82.4719C103.997 82.8741 104.162 83.3943 104.117 83.9182Z" fill="#263238"/>
<path d="M6.79662 180.132C16.9714 181.531 29.6305 173.638 62.4865 149.651C67.0312 146.335 52.2354 107.951 47.2243 111.241C40.8821 115.395 17.1579 132.871 15.5893 134.371C2.29429 146.997 -0.0967786 179.183 6.79662 180.132Z" fill="#F3A398"/>
<path d="M35.4678 122.842C35.4678 122.842 44.7946 109.717 51.8746 104.341C61.3201 97.1424 72.4361 94.8107 77.1504 94.1154C86.9945 92.6655 111.804 95.9723 112.101 103.281C112.372 109.903 87.181 105.248 87.181 105.248C87.181 105.248 113.644 105.757 112.508 113.787C111.371 121.816 82.4582 114.745 82.4582 114.745C82.4582 114.745 109.642 115.872 107.157 123.97C105.275 130.083 78.7105 125.157 78.7105 125.157C78.7105 125.157 102.062 126.293 100.4 132.669C98.5598 139.707 73.7588 136.697 73.7588 136.697C66.806 152.188 56.8009 156.546 49.5853 158.954C47.7962 159.539 35.4678 122.842 35.4678 122.842Z" fill="#F3A398"/>
<path d="M78.0296 104.49C81.1414 104.431 84.2871 104.363 87.3565 104.583C90.4259 104.804 93.5631 105.143 96.6325 105.652C100.659 106.244 104.605 107.294 108.393 108.781C101.474 106.635 90.375 105.66 87.2717 105.431C84.1684 105.202 81.0821 104.829 77.9449 104.583C77.9364 104.6 77.9533 104.49 78.0296 104.49Z" fill="#263238"/>
<path d="M77.0129 115.688C80.9896 115.798 84.9408 115.755 88.8835 116.035C92.8262 116.315 96.557 116.925 100.483 117.477C100.779 117.519 100.661 117.663 100.356 117.629C96.4128 117.239 92.7245 117.18 88.7902 116.832C84.856 116.485 80.9133 115.984 76.9706 115.781C76.9451 115.781 76.9536 115.688 77.0129 115.688Z" fill="#263238"/>
<path d="M74.4325 125.088C80.5204 124.935 86.6167 125.936 92.5859 127.004C92.8827 127.063 92.7046 127.233 92.3994 127.199C86.3708 126.444 81.6565 125.817 74.4409 125.3C74.3222 125.325 74.3053 125.088 74.4325 125.088Z" fill="#263238"/>
<path d="M35.4514 117.623L48.3988 164.8C48.3988 164.8 13.635 185.243 6.00396 179.842C-1.62711 174.441 3.34157 147.189 12.0664 136.802C15.6445 132.47 35.4514 117.623 35.4514 117.623Z" fill="#009247"/>
<path d="M35.8943 119.176L35.3855 117.625L35.5127 117.675C32.2314 120.355 28.9415 123.009 25.6941 125.713C22.4466 128.418 19.1907 131.115 16.1044 133.972C14.5404 135.356 13.0676 136.84 11.6953 138.415C10.3822 140.036 9.21066 141.766 8.19349 143.587C6.17644 147.297 4.76256 151.304 4.00488 155.458C4.33947 151.191 5.49088 147.029 7.39647 143.197C8.3539 141.271 9.51356 139.452 10.8559 137.771C12.2366 136.129 13.7236 134.58 15.3073 133.133C18.453 130.275 21.7514 127.596 25.0921 124.993C28.4328 122.39 31.8752 119.905 35.4195 117.574L35.5212 117.506V117.616L35.8943 119.176Z" fill="#263238"/>
<path d="M27.8576 129.354C28.6462 131.668 29.2482 134.059 29.9011 136.417C30.5539 138.774 31.1899 141.148 31.7919 143.53C32.9959 148.279 34.1745 153.035 35.2852 157.809C35.5904 159.115 35.8957 160.421 36.1331 161.735C36.3705 163.049 36.5655 164.575 36.8792 165.974C36.882 165.985 36.8826 165.997 36.8809 166.008C36.8792 166.02 36.8753 166.031 36.8694 166.04C36.8575 166.06 36.8381 166.075 36.8157 166.08C36.7932 166.086 36.7694 166.082 36.7495 166.07C36.7296 166.058 36.7153 166.039 36.7097 166.017C36.3959 164.855 35.9126 163.736 35.5735 162.574C35.2343 161.413 34.8867 160.175 34.573 158.962C33.9455 156.594 33.3294 154.222 32.7246 151.848C31.5121 147.1 30.325 142.343 29.2736 137.553C28.6801 134.856 28.0018 132.143 27.5778 129.413C27.5739 129.395 27.5737 129.376 27.5771 129.357C27.5805 129.339 27.5876 129.321 27.5978 129.305C27.608 129.29 27.6213 129.276 27.6368 129.265C27.6522 129.255 27.6697 129.247 27.688 129.243C27.7064 129.239 27.7254 129.239 27.7438 129.243C27.7623 129.246 27.7799 129.253 27.7957 129.263C27.8114 129.274 27.825 129.287 27.8356 129.302C27.8463 129.318 27.8537 129.335 27.8576 129.354Z" fill="#263238"/>
<path d="M48.4141 164.804C48.6431 165.244 48.6261 164.871 48.5752 164.6C48.5244 164.329 47.9902 162.056 47.4899 160.615C47.439 160.471 47.2186 160.216 47.3034 160.734C47.6011 162.109 47.9719 163.468 48.4141 164.804Z" fill="#263238"/>
</svg>
